<svg xmlns="http://www.w3.org/2000/svg" xmlns:xlink="http://www.w3.org/1999/xlink" viewBox="0 0 128 128">
  <defs>
    <symbol id="tileBorder" viewBox="0 0 128 128">
      <rect width="128" height="128" y="0" style="fill: none; stroke-width: 0px;"/>
    </symbol>
    <symbol id="cabana" viewBox="0 0 128 128">
      <g>
        <path fill="currentColor" d="m120.62,35.08c-12.06-7.64-24.01-15.45-35.93-23.3-24.76-16.29-17.56-14.96-40.4-.54C29.18,20.79,14.74,31.31,0,41.39v10.64c1.22,3.12,3.43,6.23,3.49,9.38.35,18.94.02,37.9.43,56.84.07,3.28,2.59,6.51,3.97,9.76h6.31c1.08-3.18,3.03-6.34,3.08-9.54.32-20.22.21-40.45.28-60.67,0-1.58.36-3.16.41-3.56h19.1c0-.09.01-.18.02-.26h18.43c5.47.33,10.9.31,16.34.34,1.21,0,2.41.25,3.62.25,5.12.03,10.25.01,15.37.01l.03-.17h20.08c0,1.51-.03,3.98,0,6.45.29,19.46.46,38.93,1.03,58.39.09,2.95,2.09,5.84,3.21,8.76h3.16c2.03-1.02,4.06-2.03,5.67-2.85,0-21.11-.1-41.58.11-62.04.03-3.07,1.09-6.29,2.38-9.15,3.27-7.25.97-14.52-5.92-18.88Zm-108.52,2.84C29.05,26.85,46.01,15.8,64.14,3.98c17.79,11.79,35.22,23.35,54.16,35.9H9.79c1.25-1.07,1.73-1.58,2.3-1.95Zm.18,85.46c-3.95-3.12-6.3-45.58-4.2-63.67.19-1.64,1.69-3.14,2.59-4.71.54.22,1.08.44,1.61.66v67.72Zm106.22-1.49c-.63.02-1.26.04-1.88.06V55.96c.63-.02,1.26-.04,1.88-.06v65.99Zm4-69.74c-5.01-1.46-9.16-2.67-14.55-4.24-1.62.88-4.52,2.46-8.01,4.36-2.79-1.52-5.68-3.09-8.97-4.89-2.39,1.45-4.97,3.03-8.31,5.07-2.92-1.52-6.01-3.13-9.47-4.93-5.9,6.87-11.97,4.25-18.01-1.4-5.85,7.22-11.87,5.64-18.03.47-5.86,5.33-11.79,7.13-16.93.83-4.75,1.74-8.95,3.28-14.38,5.28-.4-3.85-.64-6.18-.97-9.33h117.63v8.77Zm-20.03,35.85h-25.5v18.96c-2.32,2.36-3.89,3.95-5.74,5.83.3,4.38.6,8.79.93,13.63h7.48c.83-2.54,1.51-4.59,2.21-6.75h16.36c.62,2.27,1.19,4.35,1.93,7.05,2.72-.17,5.12-.32,7.93-.49v-14.2c-1.69-1.43-3.23-2.74-4.58-3.87-.35-6.8-.68-13.24-1.04-20.15Zm-21.62,3.75h18.03v17.21h-18.03v-17.21Zm-4.53,31.32c-.37-.7-.73-1.39-1.1-2.09.58-.15,1.16-.3,1.75-.45.09.75.18,1.49.27,2.24-.3.1-.61.2-.91.3Zm28.38-.16c-.44.07-.88.15-1.31.22-.26-1.03-.52-2.06-.78-3.09.62-.02,1.24-.05,1.87-.07.08.98.15,1.96.23,2.94Zm-.29-7.63h-28.77c9.52-3.24,19.12-3.07,28.72-1.95.01.65.03,1.3.04,1.95Zm-52.89-27.36h-24.16c-4.41,8.73,2.5,18.5-6.35,23.96v14.13c2.71.33,5.06.62,7.61.93.83-2.92,1.43-5,2.08-7.3h16.18c.71,2.17,1.39,4.25,2.23,6.8h7.74c.33-4.99.63-9.64.92-14.02-2.28-1.95-3.99-3.41-6.24-5.33v-19.18Zm-21.71,3.8h18.16v17.28h-18.16v-17.28Zm-3.66,31.07c-.38.01-.76.03-1.14.04-.04-.81-.09-1.61-.13-2.42.42,0,.84-.01,1.27-.02v2.4Zm27.05.24c-.36,0-.72,0-1.08,0v-2.79c.36,0,.72,0,1.08,0v2.79Zm-.1-9.29c.04.55.08,1.09.12,1.64h-28.81c-.02-.55-.04-1.09-.07-1.64h28.75Zm42.05-18.51c0,.37.02.73.03,1.1h-10.6c-.01-.37-.02-.73-.03-1.1h10.61Zm-.98,7.36v.93h-8.91c0-.31,0-.62,0-.93h8.92Zm-49.94-7.07c.02.3.04.6.06.9h-10.72c-.03-.3-.05-.6-.08-.9h10.73Zm-1.84,7.02c.03.25.06.49.1.74h-7.2l-.22-.74h7.32Z" style="stroke-width: 0px;"/>
        <use href="#tileBorder"/>
      </g>
    </symbol>
    <symbol id="chalet" viewBox="0 0 128 128">
      <g>
        <path d="m60.25,96.19c-.33,9.31-.09,18.65-.09,27.97-.75.02-1.5.04-2.25.07v-31h-19.59v31.57l-2.13-.04v-33.47c6.52-.34,12.1-.49,17.65-.96,4.45-.37,6.59.85,6.41,5.86Zm65.83,26.19c-.08,1.36-1.67,2.63-2.57,3.94-.8-1.37-2.09-2.68-2.3-4.14-.38-2.57-.11-5.23-.11-8.15h-9.06c.73-4.81-4.03-10.88,3.34-13.26-2.09-4.18-4.22-8.44-6.62-13.24-5.23,7.03-10.72,6.55-15.13-3.53-.35.58-.7,1.16-1.06,1.74v38.92c-.56.05-1.13.09-1.69.14v-10.49h-22.09v-12.97h21.19c0-6.21.34-11.8-.16-17.3-.22-2.42-1.65-5.19-3.4-6.93-8.88-8.83-18.04-17.38-27.21-26.13-8.5,3.44-4.49,16.29-5.85,23.05-5.41,1.35-14.91-.68-19.61,1.64-4.46,2.2-5.03,6.14-4.93,10.78.26,11.83.11,23.67-.09,35.5-.03,1.47-1.35,2.92-2.07,4.38-.97-1.45-2.8-2.91-2.78-4.34.13-7.36.92-14.72,1.1-22.08.08-3.31-.7-6.64-1.12-10.13-10.15,5.31-11.3,4.83-22.19-9.21,3.51-4.06,6.84-8.57,10.85-12.38,7.29-6.93,15.15-13.27,22.46-20.19,3.88-3.68,7.16-8.01,10.62-12.12,1.73-2.06,3.01-4.55,4.93-6.39,6.6-6.33,7.98-5.8,14,.9,6.06,6.74,12.95,12.74,20.89,20.44.55-8.6,1.12-14.78,1.27-20.97.1-4.06,1.25-5.34,5.68-4.81,4.55.54,9.37-.11,13.94-.93,7.07-1.26,8.42.26,8.34,7.11-.12,9.56.86,19.14,1.41,28.7.09,1.56,1.12,3.49.52,4.58-4.29,7.79-.62,15.88-.92,23.78-.09,2.49,2.47,5.84,4.76,7.48,3.8,2.73,6.18,5.47,5.85,10.44-.35,5.38.1,10.81-.2,16.19Zm-36.74-18.8h-18.36c-.21,2.96-.37,5.3-.55,7.83h18.91v-7.83Zm2.77-72.43c.18,6.01,5.2,7.24,16.91,4.46.1-1.86.19-3.79.31-5.97-6.41.56-11.84,1.04-17.22,1.51Zm-.51,9.4c.68,6.93.05,14.58,2.91,20.54,2.55,5.32,9.01,8.77,15.53,14.67,0-7.55,0-13.17,0-18.8s0-11.45,0-17.97c-5.72,0-10.8-.08-15.86.07-.91.03-2.61,1.06-2.57,1.49Zm-40.72,30.76l-.2-13.95-12.18,13.95h12.39Zm60.9,9.61c-18.6-17-36.46-33.32-54.16-49.5-16.14,16.23-32.56,32.74-48.16,48.43,2.18,3.27,4.02,6.03,5.86,8.79,1.11.53,2.21,1.05,3.32,1.58,12.62-14.73,25.25-29.46,38.32-44.71,16.61,16.03,30.89,29.82,46.23,44.63,2.2-2.36,4.9-5.26,8.59-9.23Zm9.03,22.88c-2.63.17-4.49.29-6.45.41-.84,5.57-.13,8.9,6.45,6.36v-6.77Z" style="stroke-width: 0px;"/>
        <use href="#tileBorder"/>
      </g>
    </symbol>
    <symbol id="pool" viewBox="0 0 128 128">
      <g>
        <path d="m110.26,63.73c7.44-1.8,11.28-7.6,14.33-14.51,6.05-13.75,4.1-25.63-6.12-36.23-.58-.6-1.04-1.34-1.66-1.88-3.4-2.95-6.46-6.89-10.34-8.5-4.67-1.93-10.03-2.32-15.13-2.55-9.06-.42-17.85,1.4-26.28,5.19-3.76,1.69-5.97,4.66-8.49,8.05-2.9,3.9-4.39,12.37-12.39,7.91-1.21-.67-3.23-.56-4.53.06-3.21,1.52-6.31,1.76-9.8,1.3-4.74-.62-8.56,2.39-12.38,5.05-1.56,1.09-3.33,2.34-5.08,2.49-2.69.23-4.14,1.73-5.51,3.88C1.6,42.3-.83,51.42.25,61.48c.55,5.11.59,10.72,4.46,14.4,5.07,4.81,9.61,10.27,16.85,12.15,5.56,1.45,11.06,2.94,16.75,3.48,1.61.15,3.24.02,4.46.02,1.01,4.34,1.37,8.66,2.99,12.32,3.34,7.56,10.45,11.74,15.16,18.16.63.85,2.17.92,3.28,1.37.74.3,1.62.45,2.17.98,5.27,5.13,11.74,3.63,17.49,2.61,4.43-.79,8.81-1.78,13.34-2.19,2.97-.27,6.08-1.41,8.69-3,2.8-1.71,5.19-4.29,7.56-6.71,2.06-2.11,4.24-4.29,5.62-6.89,1.33-2.52,1.98-5.58,2.46-8.49,1.53-9.2,2.01-18.24-5.11-25.47-.57-.57-.79-1.53-1.32-2.16-1.63-1.97-3.33-3.86-5-5.79-.31-.36-.91-.84-.85-1.1.14-.55.57-1.33,1-1.43Zm-106.06,5.43c-.4-1.72-.85-3.43-1.18-5.17-1.94-10.13.4-19.19,6.14-27.28.62-.88,2.05-1.07,3.1-1.6,4.32-2.17,8.63-4.38,12.98-6.49,1.07-.52,2.27-.82,3.44-.98,3.58-.49,7.17-1.08,10.77-1.19,2.45-.08,5.01.25,7.37.97,2.67.81,4.38.07,5.94-2.41,2.64-4.19,5.22-8.62,8.64-11.98,2.59-2.54,6.31-4.08,9.78-5.13,6.54-1.98,13.25-3.36,20.13-2.78,4.44.37,8.89.83,13.31,1.38.84.1,1.73.68,2.39,1.29,4.77,4.41,9.54,8.81,14.17,13.38,1.22,1.2,2.07,2.94,2.82,4.58,2.19,4.8,1.74,14.02-1.15,18.21.24-7.71-3.3-13.58-8.09-18.46-2.44-2.49-5.85-3.87-8.84-5.72-.43-.27-1.08-.23-1.4-.57-3.46-3.79-8.31-3.09-12.5-4.51-1.29-.43-2.92.29-4.38.51-1,.15-2.02.53-3.01.46-10.98-.83-18.89,5.52-25.82,13.42-2.29,2.62-3.11,6.74-4.56,10.07-2.44-.61-5.11-1.44-7.84-1.92-3.67-.64-7.44-1.68-11.06-1.32-3.74.37-7.28,2.57-11.03,3.34-6.09,1.26-10.03,6.17-14.21,10.12-2.63,2.48-3.37,7.51-4.49,11.55-.71,2.56-.56,5.39-1.41,8.24Zm112.77,35.09c.42-7.37-1.37-13.44-5.22-18.67-1.33-1.81-3.05-3.38-4.83-4.68-1.51-1.11-2.32-2.24-2.11-4.25.26-2.51.38-5.04.59-7.87,14.31,8.68,18.29,22.56,11.57,35.47Zm-12.8-41.83c-.67.47-.93,2.09-.92,3.17.05,3.48.51,6.97.44,10.44-.07,3.43.48,5.74,3.68,7.76,5.52,3.48,7.52,9.75,8.46,16.31.23,1.62.34,3.39-.01,4.96-.31,1.39-1.11,2.84-2.08,3.83-2.73,2.8-5.53,5.58-8.57,7.96-1.69,1.32-4.02,1.62-5.89,2.72-2.9,1.71-5.68.31-8.54.16-1.7-.09-3.43.7-5.16,1.05-2.27.46-4.64.57-6.8,1.37-4.26,1.58-7.62-.09-11.01-2.61-1.1-.82-2.72-.79-3.98-1.42-1.31-.65-2.65-1.45-3.7-2.5-2.84-2.87-5.33-6.19-8.34-8.81-4.07-3.55-5.77-8.02-5.91-13.44-.19-7.1-.24-6.68-6.69-7.23-4.81-.41-9.53-2.08-14.29-3.21-.38-.09-.76-.49-1.1-.45-7.74.94-11.62-5.67-16.64-9.98-.49-.42-.82-1.32-.88-2.02-.51-6.3-.4-13.09,3.53-17.65,3.09-3.6,6.22-8.14,11.34-9.4,1.32-.32,2.42-1.53,3.72-2.09,1.55-.68,3.18-1.2,4.82-1.6,2.31-.57,4.68-1.45,6.99-1.34,4.73.22,9.45.85,14.13,1.64,1.43.24,2.71,1.57,4.49,2.67.66-7.03,3.57-12.28,8.4-16.09,5.66-4.46,11.33-9.01,19.01-8.34,1.64.14,3.36-.95,5.04-.95,4.93-.01,9.78.12,14.24,3.22,3.31,2.3,7.21,3.6,10.62,5.77,6.92,4.41,10.47,14.24,8.39,22.39-1.34,5.27-5.07,7.73-9.41,9.65-2.55,1.13-5.03,2.51-7.34,4.12Zm-24.26,30.47c.84.94,1.43,2.14,2.14,3.22-.41.3-.82.59-1.22.89-3.11-3.32-6.22-6.64-9.21-9.84-2.44,2.99-5.37,6.56-8.29,10.14-.39-.28-.78-.55-1.17-.83.26-.75.31-1.88.81-2.18,4.76-2.93,7.27-7.55,8.85-13.97.77,2.53.92,4.6,1.91,5.94,1.81,2.43,4.16,4.38,6.19,6.63Zm-8.7-48.92l-1.09-.86c2.14-3.3,4.27-6.6,7.02-10.85-.66,5.69,3.19,7.76,6.22,10.39-.58.48-1.16.96-1.74,1.43-1.95-2.11-3.89-4.22-5.69-6.17-1.3,1.67-3.01,3.86-4.72,6.05Zm23.33,41.49c-4.5.95-4.53-3.34-5.83-5.61-1.88,2.29-3.75,4.57-5.62,6.85-.37-.32-.75-.63-1.12-.95,2.13-3.03,4.26-6.07,6.68-9.5.7,1.91,1.09,4.02,2.16,5.58.95,1.39,2.66,2.18,3.73,3.64Z" style="stroke-width: 0px;"/>
        <use href="#tileBorder"/>
      </g>
    </symbol>
    <symbol id="road-corner" viewBox="0 0 128 128">
      <g>
        <path d="m127.99,86.47v4c-2.94-.28-5.89-.89-8.82-.78-12.1.46-24.19,1.16-36.29,1.71-4.16.19-8.32.26-12.48.18-2.11-.04-4.21-.58-6.32-.83-2.91-.35-5.82-.91-8.73-.91-4.46,0-8.92.38-13.38.68-3.16.22-4.06-1.37-3.92-4.24.41-8.39-.99-16.66.74-25.27,1.34-6.68-1.5-14.1-1.74-21.22-.24-7.12.51-14.27.71-21.4.16-5.97.15-11.95.22-17.92h4c.48,19-4.17,38.08.89,57.03.37,1.4.2,2.98.09,4.46-.63,8-1.33,15.99-2.1,25.19,4.88-.27,8.4-.47,11.92-.67,2.96-.16,6-.8,8.88-.39,17.81,2.53,35.6,2.89,53.47.51,4.21-.56,8.56-.11,12.85-.12Zm-13.76-47.48c-5.72-1.43-10.88-2.02-16.5.07-5.59,2.08-8.86.12-8.88-5.84-.04-10.92.72-21.84,1.14-32.76h-4c-.41,9.11-.97,18.23-1.14,27.35-.07,3.79.44,7.65,1.24,11.36.29,1.34,2.1,3.25,3.32,3.33,3.86.26,7.78-.19,11.67-.45,2.63-.17,5.61-1.43,7.8-.57,6.39,2.5,12.69,1.8,19.11.98v-4c-4.61.26-9.48,1.59-13.76.52Zm-65.23,19.84c.14-9.55.56-19.1.56-28.65,0-9.9-.37-19.8-.57-29.71h-2v81h81v-2H48.99c0-7.44-.08-14.04.02-20.64Zm31.89-16.67c.05-8.12.12-16.24.14-24.36.02-5.78-.03-11.56-.04-17.33h-2v49h49v-2h-47.1c0-2.02,0-3.66,0-5.31Z" style="stroke-width: 0px;"/>
        <use href="#tileBorder"/>
      </g>
    </symbol>
    <symbol id="road-crossroad" viewBox="0 0 128 128">
      <g>
        <path d="m13.82,42.8c-4.61-.05-9.22-.52-13.82-.8v-4c5.73.12,11.46.3,17.19.34,5.12.04,10.38-.82,15.34.06,5.41.96,6.49-1.32,6.38-5.66-.28-10.92-.61-21.83-.92-32.75h4c.05,12.28.27,24.55.07,36.83-.08,5.07-2.31,6.08-7.49,5.85-6.9-.29-13.84.2-20.76.13Zm99.81-4.48c-7.82.05-15.64.01-24.85.01.42-13.45.82-25.9,1.21-38.34h-4c-2.48,12.38-.94,24.75.18,37.1.15,1.63,1.32,4.47,2.18,4.53,8.09.61,16.21.87,24.32.95,5.1.05,10.21-.38,15.32-.59v-4c-4.79.11-9.58.29-14.36.32Zm-2.4,48.19c-4.36-.24-8.71-.97-13.07-.97-3.69,0-7.71.06-10.91,1.55-1.13.52-.35,5.35-.27,8.2.04,1.48.72,2.96.65,4.41-.48,9.43-1.08,18.86-1.65,28.29h4c.2-1.97.54-3.94.58-5.92.14-8.75.22-17.49.26-26.24,0-2.03-.24-4.07-.37-6.1,2.53.02,5.06-.04,7.58.08,3.93.19,7.96,1.17,11.76.59,4.44-.68,8.57-2.01,13.02.23,1.29.65,3.43-.38,5.18-.64v-4c-1.91.24-3.81.65-5.72.69-3.68.06-7.37.03-11.04-.17Zm-69.61,4.2c.08-3.58-.84-4.96-3.94-5.32-2.13-.24-4.3-.24-6.45-.19-10.41.24-20.83.52-31.24.79v4c10.93-.32,21.86-.56,32.78-1.01,3.56-.15,5.04.89,5,4.73-.11,11.43.12,22.86.22,34.28h4c-.18-12.43-.65-24.87-.37-37.29Zm5.37-43.71H0v2h49V0h-2v47ZM81,0h-2v49h49v-2h-47V0Zm-1.27,87.37c-.17,13.55-.48,27.09-.73,40.63h2c0-4.1.02-8.19.02-12.29,0-11.44,0-22.87,0-34.71h46.98v-2h-49.09c.36,3.49.85,5.93.82,8.37ZM0,81h47v47h2v-49H0v2Z" style="stroke-width: 0px;"/>
        <use href="#tileBorder"/>
      </g>
    </symbol>
    <symbol id="road-dead-end" viewBox="0 0 128 128">
      <g>
        <path d="m87.78,103.21c.61,8.26,1.27,16.52,1.91,24.78h-4.01c-.48-7.78-.98-15.56-1.42-23.35-.09-1.64.11-3.3.14-4.95.14-8.1.25-16.21.39-24.31.06-3.32.16-6.65.28-9.97.22-6.08.38-12.16.73-18.23.67-11.77-5.3-19.49-14.85-25.3-2.52-1.53-4.55-3.85-7.09-6.07-6.64,6.05-13.41,12.15-20.06,18.36-.86.8-1.57,2.23-1.59,3.38-.26,18.26-.31,36.53-.61,54.79-.09,5.63-1.1,11.24-1.09,16.87.01,6.26.71,12.52,1.1,18.78h-4.01c.07-13.4.17-26.81.19-40.21.02-11.65-.07-23.3-.08-34.96,0-5.58-.17-11.18.2-16.75.1-1.51,1.67-3.14,2.93-4.33,5.46-5.12,11.1-10.04,16.56-15.15,2.04-1.91,3.77-4.14,5.98-6.59,1.06.86,2.09,1.57,2.95,2.44,1.63,1.66,2.85,4.13,4.8,5,7.86,3.5,12.05,10.54,17.11,16.75.59.72,1.25,1.77,1.17,2.6-.93,9.55,2.92,19.14-.42,28.73-.89,2.55-.4,5.6-.47,8.42-.21,8.92-.38,17.85-.58,26.77-.02.83-.23,1.66-.17,2.48Zm-7.26-61.49c0-.78-.09-1.8-.56-2.32-5.18-5.75-10.45-11.43-15.7-17.13-.91-.15-1.81-.3-2.72-.44-4.12,4.94-8.33,9.82-12.32,14.87-1.17,1.48-2.42,3.4-2.5,5.17-.44,9.76-.74,19.54-.7,29.31.07,18.94.39,37.88.61,56.82h2c-.3-5.9-.86-11.81-.85-17.71.02-11.73.37-23.47.53-35.2.07-4.78-.01-9.57.01-14.35.04-6.46,0-12.92.27-19.37.05-1.3,1.01-2.82,1.99-3.8,4.08-4.07,8.33-7.98,12.35-11.79,5.12,4.9,10.16,9.66,15.08,14.54.58.57.63,1.84.64,2.78.05,10.27.03,20.55.06,30.83.03,10.57.12,21.15.12,31.72,0,7.45-.11,14.89-.17,22.34h2c.02-2.32.09-4.65.05-6.97-.19-11.53-.58-23.06-.59-34.59-.02-14.9.27-29.81.38-44.72Z" style="stroke-width: 0px;"/>
        <use href="#tileBorder"/>
      </g>
    </symbol>
    <symbol id="road-t-junction" viewBox="0 0 128 128">
      <g>
        <path d="m42.13,64.05c.19,2.48.3,4.98.21,7.46-.34,9.73-.95,19.45-1.11,29.18-.15,9.1.14,18.21.24,27.31h-4c.09-11.44.08-22.87.29-34.31.15-7.91.79-15.82.84-23.73.04-5.27-.61-10.54-.89-15.82-.44-8.34-.86-16.69-1.2-25.03-.09-2.15.18-4.32.2-6.48.05-5.26-.02-10.53.09-15.79.05-2.29.43-4.57.66-6.85h4c-.17,2.6-.44,5.2-.46,7.8-.01,1.98.52,3.97.46,5.95-.3,9.69-1.03,19.38-.98,29.07.04,7.08,1.1,14.15,1.63,21.22Zm47.14-26.05c0-2.48,0-4.59,0-6.7,0-7.54-.03-15.07,0-22.61.01-2.9.14-5.79.22-8.69h-4c-.29,1.95-1.23,4.07-.76,5.83,2.41,9.16,1.96,18.21.67,27.52-1.13,8.12-.42,8.26,7.98,8.72,1.32.07,2.64.46,3.95.44,10.06-.13,20.12-.33,30.18-.51v-4h-38.24Zm.15,48.36c-3.09-.09-3.95.99-3.95,3.53.02,7.94.17,15.88.19,23.82.01,4.76-.11,9.53-.18,14.29h4c-.2-6.08-.48-12.16-.57-18.25-.1-6.35-.02-12.7-.02-17.8,10.53-.97,19.9-1.97,29.3-2.63,3.07-.22,6.21.42,9.31.67v-4c-4.29.01-8.57-.01-12.86.05-8.41.12-16.83.55-25.22.31ZM48.47,0h-2c-.2,7.71-.59,15.43-.55,23.14.07,12.5.52,25,.61,37.5.04,4.91-.67,9.83-.65,14.75.1,17.54.37,35.07.58,52.6h2c-.03-27.12-.08-54.24-.09-81.35,0-9.67.07-19.34.09-29.02.01-5.88,0-11.75,0-17.63Zm32.01,0h-2v49h49.02v-2h-47.02V0Zm-2,79.24v48.76h2v-47.1c3.13,0,5.27,0,7.42,0,13.2.03,26.4.06,39.59.1v-2c-11.9.08-23.79.17-35.69.24-4.26.02-8.52,0-13.33,0Z" style="stroke-width: 0px;"/>
        <use href="#tileBorder"/>
      </g>
    </symbol>
    <symbol id="road-vertical" viewBox="0 0 128 128">
      <g>
        <path d="m41.56,66.78c-.08,4.32.18,8.65.2,12.97.02,8.79-.01,17.58-.05,26.38-.03,7.29-.08,14.58-.13,21.87h-4c.15-16.08.29-32.16.44-48.24.09-10.45.32-20.91.25-31.36-.12-16.13-.45-32.26-.69-48.4h4c.23,14.31.58,28.62.64,42.93.03,7.95-.51,15.9-.66,23.85Zm48.6,52.9c-4.75-15.9-1.23-32.04-1.01-47.96.12-8.96,1.2-17.88.64-27.04-.91-14.84-.19-29.78-.16-44.68h-4c.06,7.59,0,15.19.22,22.78.31,10.43.87,20.84,1.28,31.27.1,2.48.23,4.99.04,7.46-.89,11.49-2.27,22.95-2.7,34.45-.27,7.25.93,14.54,1.29,21.82.17,3.4-.08,6.82-.14,10.23h4c.22-2.79,1.29-5.83.54-8.33ZM78.61,0c-.19,3.47-.61,6.95-.52,10.41.37,13.67,1.15,27.34,1.3,41.01.11,10.3-.67,20.61-.76,30.92-.14,15.22-.02,30.44-.01,45.66h2c-.02-9.79,0-19.57-.08-29.36-.17-18.98-.55-37.96-.57-56.93-.01-13.9.42-27.81.65-41.71h-2Zm-30.02,0h-2c0,26.61-.03,53.23-.02,79.84,0,12.45.09,24.9.11,37.35,0,3.6-.06,7.21-.09,10.81h2c-.17-1.64-.52-3.29-.49-4.92.32-17.27.97-34.53,1.01-51.8.06-23.76-.33-47.52-.52-71.28Z" style="stroke-width: 0px;"/>
        <use href="#tileBorder"/>
      </g>
    </symbol>
  </defs>
</svg>
